<svg width="107" height="39" viewBox="0 0 107 39" fill="none" xmlns="http://www.w3.org/2000/svg">
<path d="M0 6.84574C0 3.06494 3.06373 0 6.84302 0C10.6223 0 13.686 3.06494 13.686 6.84574V32.1543C13.686 35.9351 10.6223 39 6.84302 39C3.06373 39 0 35.9351 0 32.1543V6.84574Z" fill="#E7E7E7"/>
<path d="M16.1744 6.84574C16.1744 3.06494 19.2381 0 23.0174 0C26.7967 0 29.8605 3.06494 29.8605 6.84574V32.1543C29.8605 35.9351 26.7967 39 23.0174 39C19.2381 39 16.1744 35.9351 16.1744 32.1543V6.84574Z" fill="#E7E7E7"/>
<path d="M32.3488 6.84574C32.3488 3.06494 35.4126 0 39.1919 0C42.9712 0 46.0349 3.06494 46.0349 6.84574V32.1543C46.0349 35.9351 42.9712 39 39.1919 39C35.4126 39 32.3488 35.9351 32.3488 32.1543V6.84574Z" fill="#E7E7E7"/>
<path d="M67.8081 0C71.5874 3.5865e-07 74.6512 3.06495 74.6512 6.84574C74.6512 10.6265 71.5874 13.6915 67.8081 13.6915H62.2093V32.1543C62.2093 35.9351 59.1456 39 55.3663 39C51.587 39 48.5233 35.9351 48.5233 32.1543V6.84574C48.5233 3.06494 51.587 0 55.3663 0H67.8081Z" fill="#E7E7E7"/>
<path d="M77.1395 6.84574C77.1395 3.06494 80.2033 0 83.9826 0C87.7619 0 90.8256 3.06494 90.8256 6.84574V32.1543C90.8256 35.9351 87.7619 39 83.9826 39C80.2033 39 77.1395 35.9351 77.1395 32.1543V6.84574Z" fill="#E7E7E7"/>
<path d="M93.314 6.84574C93.314 3.06494 96.3777 0 100.157 0C103.936 0 107 3.06494 107 6.84574V32.1543C107 35.9351 103.936 39 100.157 39C96.3777 39 93.314 35.9351 93.314 32.1543V6.84574Z" fill="#E7E7E7"/>
</svg>
