<svg width="380" height="380" viewBox="0 0 380 380" fill="none" xmlns="http://www.w3.org/2000/svg">
<path d="M207.903 124.562L212.576 124.55L212.586 129.187L217.214 129.178L217.251 124.564L221.902 124.554L221.884 129.18L217.28 129.188L217.259 133.882L212.565 133.876L207.874 133.897L203.252 133.891L203.241 138.559L189.25 138.569L189.244 143.217L193.852 143.201L193.854 147.909L189.242 147.903L189.227 152.589L193.868 152.59L193.844 157.224L189.235 157.217L189.226 161.939L193.873 161.938L193.881 166.613L198.548 166.6L198.54 171.25L193.881 171.253L193.852 175.951L189.232 175.95L189.226 180.629L193.862 180.619L193.859 185.283L193.854 189.972L193.844 194.622L189.229 194.628L189.218 199.305L184.53 199.284L184.514 194.635L179.842 194.63L179.836 199.3L175.196 199.285L170.5 199.314L170.494 203.992L170.519 208.679L175.205 208.639L175.189 213.32L170.489 213.315L170.495 218.022L165.844 218.025L165.804 222.68L161.184 222.637L161.173 218.042L156.462 218.021L156.473 222.665L151.838 222.657C151.839 224.21 151.82 225.807 151.844 227.354L156.48 227.347L156.467 232.047L151.838 232.041L151.842 236.691L156.482 236.681L156.474 241.39L151.82 241.363L151.777 236.726L147.146 236.675L147.155 232.068L142.464 232.037L142.447 227.359L137.8 227.354L137.778 232.057L133.134 232.034L133.127 227.354L137.75 227.339L137.778 222.723L133.146 222.642L133.128 218.042L128.426 218.013L128.432 213.338L123.795 213.32L123.753 208.646L128.404 208.635L128.434 204.018L128.429 199.293L128.421 194.684L123.799 194.609L123.746 190.002L119.116 189.988L119.106 194.627L114.427 194.636L114.406 208.684L119.102 208.632L119.092 213.337C118.028 213.337 115.378 213.273 114.487 213.471C114.297 212.137 114.353 210.144 114.345 208.751C112.819 208.708 111.219 208.727 109.686 208.725C109.71 205.949 109.809 201.626 109.25 199.041L109.447 195.215L109.755 194.772C111.09 194.512 112.977 194.609 114.38 194.619L114.407 189.998L119.064 189.967L119.103 185.276L123.735 185.264L123.745 180.667L119.116 180.615L119.099 175.959L123.73 175.945L123.763 171.293L119.117 171.249L119.108 166.6L123.713 166.582L123.754 161.938L128.427 161.927L133.133 161.949L137.812 161.934C137.809 163.492 137.814 165.05 137.828 166.608L142.419 166.579L142.445 161.94L147.155 161.932L147.154 166.601L142.469 166.602L142.453 171.252L147.168 171.249L147.156 175.966L151.76 175.945L151.781 171.263L156.479 171.249L156.476 175.97L161.133 175.943L161.164 171.261L165.819 171.251L165.851 175.96L170.499 175.951L170.485 171.253L175.219 171.227L175.208 166.632L179.8 166.576L179.816 161.939L184.536 161.9L184.515 157.232L179.844 157.228L179.816 152.6L184.536 152.549L184.525 147.925L184.52 143.199L184.523 138.594L189.183 138.553L189.216 133.906L193.868 133.861L193.862 129.192L198.524 129.176L198.548 124.571L203.199 124.533L203.241 119.867L207.877 119.853L207.903 124.562Z" fill="#E7E7E7"/>
<path d="M147 148.019L151.646 148L151.662 152.526L156.268 152.488L156.303 148.011L161 148.006L160.989 152.514L156.317 152.516L156.301 157L151.657 156.98L151.618 152.561L147.012 152.487L147 148.019Z" fill="#E7E7E7"/>
<path d="M128.479 148.018L132.999 148L133 152.528L132.988 156.97L128.478 157L124.026 156.975L124 152.51L128.451 152.487L128.479 148.018Z" fill="#E7E7E7"/>
<path d="M128.017 153L133 153.015L132.986 156.973L128 157L128.017 153Z" fill="#101010"/>
<path d="M137.498 148.01L141.988 148L142 152.521L137.521 152.522L137.509 157L133 156.992L133.012 152.543L137.446 152.498L137.498 148.01Z" fill="#E7E7E7"/>
<path d="M142.004 143.011L147 143L146.982 148L142 147.975L142.004 143.011Z" fill="#E7E7E7"/>
<path d="M128.003 157.033L132.992 157L133 162L128 161.976L128.003 157.033Z" fill="#E7E7E7"/>
<path d="M180 143.01L184.994 143L185 148L180.024 147.983L180 143.01Z" fill="#E7E7E7"/>
<path d="M170 162.01L175 162L175 167L170.023 166.97L170 162.01Z" fill="#E7E7E7"/>
<path d="M170 153.008L175 153L174.987 156.997L170.009 157L170 153.008Z" fill="#E7E7E7"/>
<path d="M152 162.009L156 162L155.966 167L152.029 166.989L152 162.009Z" fill="#E7E7E7"/>
<path d="M161 162.005L166 162L165.988 167L161.01 166.99L161 162.005Z" fill="#E7E7E7"/>
<path d="M156.015 213.019L160.997 213L161 218L156 217.977L156.015 213.019Z" fill="#E7E7E7"/>
<path d="M128.006 213.021L133 213V218L128 217.97L128.006 213.021Z" fill="#E7E7E7"/>
<path d="M142 227.016L146.991 227L147 232L142.017 231.967L142 227.016Z" fill="#E7E7E7"/>
<path d="M128 199L133 199.022L132.958 203.972L128.005 204L128 199Z" fill="#101010"/>
<path d="M185 143L189 143.045L188.981 147.976L185.005 148L185 143Z" fill="#101010"/>
<path d="M208.028 129L213 129.039V133.977L208 134L208.028 129Z" fill="#101010"/>
<path d="M142 176L146.989 176.022L147 180.926L142.004 181L142 176Z" fill="#101010"/>
<path d="M142.025 223L146.999 223.026L147 226.987L142 227L142.025 223Z" fill="#101010"/>
<path d="M171.018 195.008L174.994 195L175 198.976L171 199L171.018 195.008Z" fill="#101010"/>
<path d="M156.016 209L160.999 209.025L161 212.985L156 213L156.016 209Z" fill="#101010"/>
<path d="M128.02 209L132.988 209.032L133 212.983L128 213L128.02 209Z" fill="#101010"/>
<path d="M128 162L133 162.024L132.954 166.975L128.019 167L128 162Z" fill="#101010"/>
<path d="M194 185.021L193.994 189.988L189 190L189.017 185L194 185.021Z" fill="#101010"/>
<path d="M133 213L138 213.01L137.977 217.952L133 218V213Z" fill="#101010"/>
<path d="M161 213L166 213.026L165.966 217.971L161.003 218L161 213Z" fill="#101010"/>
<path d="M147 227L152 227.024L151.96 231.954L147.009 232L147 227Z" fill="#101010"/>
<path d="M156 213.008L155.988 217.99L152.012 218C151.987 216.358 152.008 214.649 152.011 213L156 213.008Z" fill="#101010"/>
<path d="M171 199.009L170.994 203.986L166.011 204C165.986 202.354 166.011 200.652 166.013 199L171 199.009Z" fill="#101010"/>
<path d="M133.024 195.009L138 195L137.987 198.979L133 199L133.024 195.009Z" fill="#101010"/>
<path d="M152.024 176L156 176.007L155.973 180.987L152 181L152.024 176Z" fill="#101010"/>
<path d="M166.018 209L170 209.022L169.999 212.993L166.008 213C166.008 211.694 165.984 210.299 166.018 209Z" fill="#101010"/>
<path d="M170 176L174.987 176.007C174.989 177.235 175.063 179.913 174.837 180.973L170.001 181L170 176Z" fill="#101010"/>
<path d="M170.013 185L174.987 185.021L175 189.949L170 190L170.013 185Z" fill="#101010"/>
<path d="M142.007 213L147 213.019L146.962 217.967L142 218L142.007 213Z" fill="#101010"/>
<path d="M142.02 185.012L146.983 185L147 189.974L142 190L142.02 185.012Z" fill="#101010"/>
<path d="M142.022 195L146.98 195.012L147 198.956L142 199L142.022 195Z" fill="#101010"/>
<path d="M155.995 185.018L156 189.969L152 190L152.008 185L155.995 185.018Z" fill="#101010"/>
<path d="M156.031 199L161 199.017L160.971 203.985L156 204L156.031 199Z" fill="#101010"/>
<path d="M133.016 185L137.951 185.033L138 189.949L133 190L133.016 185Z" fill="#101010"/>
<path d="M128.012 171L133 171.03L132.991 175.98L128 176L128.012 171Z" fill="#101010"/>
<path d="M199.018 129L203 129.02L202.98 133.989L199 134L199.018 129Z" fill="#101010"/>
<path d="M156.022 181L160.98 181.023L161 184.993L156 185L156.022 181Z" fill="#101010"/>
<path d="M161 185L166 185.007L165.986 189.982L161.004 190L161 185Z" fill="#101010"/>
<path d="M142 204L147 204.005L146.988 208.97L142.002 209L142 204Z" fill="#101010"/>
<path d="M128 190L133 190.032L132.962 194.984L128.011 195L128 190Z" fill="#101010"/>
<path d="M180.04 185.012L184.996 185L185 189.976L180.004 190C179.988 188.365 180.028 186.654 180.04 185.012Z" fill="#101010"/>
<path d="M141.993 199.024L142 203.994L138.018 204C137.981 202.358 138.011 200.648 138.02 199L141.993 199.024Z" fill="#101010"/>
<path d="M161.01 195L166 195.035L165.995 198.978L161 199L161.01 195Z" fill="#101010"/>
<path d="M124.01 176L128 176.004L128 180.934L124.01 181C123.988 179.36 124.01 177.647 124.01 176Z" fill="#101010"/>
<path d="M161.003 176L165.968 176.006L166 180.941L161 181L161.003 176Z" fill="#101010"/>
<path d="M133.003 167L137.965 167.01L138 170.931C136.639 171.02 134.427 170.986 133 171L133.003 167Z" fill="#101010"/>
<path d="M124.016 185.003L127.986 185L128 189.988L124.003 190C124.006 188.354 123.988 186.642 124.016 185.003Z" fill="#101010"/>
<path d="M133.003 204L137.964 204.007L138 208.871C136.876 209.004 134.242 208.981 133 209L133.003 204Z" fill="#101010"/>
<path d="M147.033 209L151.976 209.029C152.005 210.349 152.008 211.669 151.983 212.989L147 213L147.033 209Z" fill="#101010"/>
<path d="M180 176L184.998 176.012C185.006 177.638 184.983 179.287 184.972 180.915L180.003 181L180 176Z" fill="#101010"/>
<path d="M175.032 181L180 181.042L179.997 184.987L175 185L175.032 181Z" fill="#101010"/>
<path d="M161.002 204L166 204.011L165.966 208.974L161 209L161.002 204Z" fill="#101010"/>
<path d="M180.042 167.014L184.98 167L185 170.981L180.002 171C179.991 169.688 180.028 168.331 180.042 167.014Z" fill="#101010"/>
<path d="M147.001 218L152 218.011L151.963 222.975L147 223L147.001 218Z" fill="#101010"/>
<path d="M138.035 181L142 181.026L141.995 184.993L138.02 185C137.975 183.684 138.017 182.32 138.035 181Z" fill="#101010"/>
<path d="M203 125L208 125.009L207.971 128.985L203 129V125Z" fill="#101010"/>
<path d="M124.018 167L128 167.013L127.976 170.982L124.013 171C123.984 169.702 124.013 168.307 124.018 167Z" fill="#101010"/>
<path d="M133.023 176.008L137.987 176C138.008 177.806 138.024 179.175 137.869 180.979L133 181L133.023 176.008Z" fill="#101010"/>
<path d="M152.033 195L155.991 195.015C156.008 196.441 156.008 197.564 155.916 198.986L152.002 199C151.993 197.683 152.022 196.321 152.033 195Z" fill="#101010"/>
<path d="M166.039 190L170 190.022L169.98 194.981L166.017 195C165.976 193.359 166.019 191.647 166.039 190Z" fill="#101010"/>
<path d="M190.038 167L193.956 167.037C193.995 168.367 194.071 169.386 193.841 170.714L193.343 170.997L189.067 171C189.034 169.932 188.836 168.003 189.329 167.135L190.038 167Z" fill="#101010"/>
<path d="M152.001 204L156 204.019L155.972 209L152.015 208.997C151.989 207.356 152.005 205.647 152.001 204Z" fill="#101010"/>
<path d="M138.035 218L142 218.016L141.971 222.978L138.029 223C137.97 221.362 138.016 219.645 138.035 218Z" fill="#101010"/>
<path d="M151.415 87.0153L156.097 87.0008L156.102 91.6871L160.803 91.6728L160.813 87.0079L165.456 87.0013L165.483 91.6797L170.137 91.6741L174.858 91.6902L179.457 91.6664L179.503 87.0106L184.195 87L184.195 91.6908L184.194 96.3662L188.903 96.3868L193.54 96.3686L198.244 96.3895L202.959 96.3797L202.965 101L207.547 100.989L207.586 96.3754L212.256 96.3517L212.291 91.6868L217 91.6863L216.984 96.3921L212.296 96.3752L212.293 100.998L207.616 101L207.594 105.693L207.584 110.368L207.592 115.018L207.589 119.68L202.946 119.695L202.904 124.355L198.244 124.392L198.221 128.99L193.551 129.006L193.556 133.669L188.896 133.714L188.863 138.354L184.196 138.395L179.519 138.356L179.479 133.714L174.863 133.699L174.847 138.382L170.153 138.345L170.143 133.71L165.49 133.695L165.445 138.382L160.819 138.342L160.807 133.707L156.088 133.689L156.091 138.382L151.433 138.343L151.395 133.712L146.781 133.696L146.762 138.359L132.734 138.374L132.719 143L128.001 142.993L128 138.375L132.684 138.351L132.708 133.697L137.415 133.666L137.368 129.039L132.726 128.999L132.711 124.373L137.351 124.346L137.374 119.694L132.725 119.685L132.704 115.003L137.411 114.967L137.366 110.4L132.726 110.37L132.713 105.69L137.404 105.685L137.419 110.382L142.022 110.352L142.039 105.685L146.78 105.66L146.755 101.046L142.06 100.999L142.049 96.3712L146.72 96.3548L146.765 91.6778L151.365 91.6667L151.415 87.0153Z" fill="#E7E7E7"/>
<path d="M203.003 111.025L207.991 111L208 115.487L207.997 119.985L203 120V115.462L203.003 111.025Z" fill="#101010"/>
<path d="M203.003 111.022L207.991 111L208 115L203 114.978L203.003 111.022Z" fill="#E7E7E7"/>
<path d="M156.012 129.016L160.999 129L161 134L156 133.981L156.012 129.016Z" fill="#E7E7E7"/>
<path d="M170 92L174.99 92.0171L175 96.9493L170.008 97L170 92Z" fill="#101010"/>
<path d="M170.012 129L175 129.037L174.963 133.976L170 134L170.012 129Z" fill="#101010"/>
<path d="M185 106L189 106.017L188.964 110.967L185.006 111L185 106Z" fill="#101010"/>
<path d="M199.005 120L203 120.019L202.964 124.96L199 125L199.005 120Z" fill="#101010"/>
<path d="M185.002 134L189 134.03L188.972 138.957L185 139L185.002 134Z" fill="#101010"/>
<path d="M156 129.025L155.99 133.988L152.005 134L152 129L156 129.025Z" fill="#101010"/>
<path d="M180 101L185 101.039L184.999 105.99L180.009 106L180 101Z" fill="#101010"/>
<path d="M193.994 129.024L194 133.953L189 134L189.017 129L193.994 129.024Z" fill="#101010"/>
<path d="M155.996 92.0053L156 96.9589L152 97L152 92L155.996 92.0053Z" fill="#101010"/>
<path d="M161.016 120L165.967 120.019L166 124.933L161 125L161.016 120Z" fill="#101010"/>
<path d="M161 129L166 129.008L165.985 133.975L161.001 134L161 129Z" fill="#101010"/>
<path d="M180.03 129.01L184.986 129L185 133.991L180 134C180.008 132.367 179.984 130.633 180.03 129.01Z" fill="#101010"/>
<path d="M185 92.0076L184.999 97L180.01 96.9986C179.983 95.3699 180.02 93.6383 180.026 92L185 92.0076Z" fill="#101010"/>
<path d="M208 106.007L207.989 110.973L203 111L203.02 106L208 106.007Z" fill="#101010"/>
<path d="M185 97L189 97.0178L188.993 100.995L185.013 101L185 97Z" fill="#101010"/>
<path d="M156.033 125L160.997 125.025L161 128.987L156 129L156.033 125Z" fill="#101010"/>
<path d="M161 92L166 92.027L165.968 96.9871L161.013 97L161 92Z" fill="#101010"/>
<path d="M199.011 111L203 111.014L202.998 114.999L199 115L199.011 111Z" fill="#101010"/>
<path d="M189 101L194 101.046L193.969 105.98L189.01 106L189 101Z" fill="#101010"/>
<path d="M194 97L199 97.018L198.969 100.99L194.028 101L194 97Z" fill="#101010"/>
<path d="M194.042 125L199 125.018L198.975 128.986L194 129L194.042 125Z" fill="#101010"/>
<path d="M180.03 111L185 111.008L184.968 114.991L180 115L180.03 111Z" fill="#101010"/>
<path d="M166.019 97L170 97.0117L169.982 100.989L166.017 101C165.982 99.6888 166.011 98.3164 166.019 97Z" fill="#101010"/>
<path d="M142.013 120L146.988 120.017L147 124.936L142 125L142.013 120Z" fill="#101010"/>
<path d="M156.006 106L161 106.03L160.977 110.978L156 111L156.006 106Z" fill="#101010"/>
<path d="M180 120L184.993 120.017L185 124.946L180.011 125L180 120Z" fill="#101010"/>
<path d="M142.022 129.01L147 129L146.991 133.984L142 134L142.022 129.01Z" fill="#101010"/>
<path d="M171.001 120L175 120.003L174.984 124.965L171 125L171.001 120Z" fill="#101010"/>
<path d="M171.026 101.009L175 101L174.99 105.984L171 106L171.026 101.009Z" fill="#101010"/>
<path d="M199 106.008L198.977 110.983L194.011 111L194 106L199 106.008Z" fill="#101010"/>
<path d="M171 111L174.991 111.019L175 114.956L171.004 115L171 111Z" fill="#101010"/>
<path d="M161.013 101L165.965 101.03L166 105.957L161 106L161.013 101Z" fill="#101010"/>
<path d="M185.015 115L189 115.037L188.986 119.991L185 120L185.015 115Z" fill="#101010"/>
<path d="M199.011 101L203 101.044L202.975 105.985L199 106L199.011 101Z" fill="#101010"/>
<path d="M152 111L155.994 111.018L156 114.953L152.009 115L152 111Z" fill="#101010"/>
<path d="M166.044 115L170.979 115.039L171 119.997L166.011 120C166.011 118.408 165.971 116.566 166.044 115Z" fill="#101010"/>
<path d="M175.032 106L180 106.018L179.982 110.971L175 111L175.032 106Z" fill="#101010"/>
<path d="M147.027 115L152 115.036V119.988L147 120L147.027 115Z" fill="#101010"/>
<path d="M189.028 120.006L194 120L193.989 124.973L189 125L189.028 120.006Z" fill="#101010"/>
<path d="M142.026 111.021L147 111L146.982 114.968L142 115L142.026 111.021Z" fill="#101010"/>
<path d="M152.032 101.013L155.985 101L156 105.994L152 106C152.009 104.353 152 102.654 152.032 101.013Z" fill="#101010"/>
<path d="M189.003 111L193.971 111.005L194 114.968L189 115L189.003 111Z" fill="#101010"/>
<path d="M161.025 111.009L166 111L165.98 114.981L161 115L161.025 111.009Z" fill="#101010"/>
<path d="M147 97L152 97.0121L151.982 100.977L147.009 101L147 97Z" fill="#101010"/>
<path d="M152.042 120.006L156 120L155.975 124.981L152.005 125C151.986 123.376 152.026 121.64 152.042 120.006Z" fill="#101010"/>
<path d="M175.027 125L180 125.016L179.983 128.986L175.006 129C174.987 127.682 175.018 126.322 175.027 125Z" fill="#101010"/>
<path d="M138.021 125L142 125.026L141.981 128.983L138.027 129C137.975 127.702 138.013 126.306 138.021 125Z" fill="#101010"/>
<path d="M189.532 87.0082L193.992 87L194 91.9955L193.992 96.9806L189.53 97L185 96.978L185.001 91.9969L189.486 91.9755L189.532 87.0082Z" fill="#E7E7E7"/>
<path d="M194 92.0059L193.991 96.9806L189 97L189.019 92L194 92.0059Z" fill="#101010"/>
<path d="M109.506 176.008L113.993 176L113.99 180.642L109.54 180.644L109.534 185.299L114 185.288L113.994 190L109.533 189.968L109.482 185.332L105.007 185.279L105 180.641L109.446 180.634L109.506 176.008Z" fill="#E7E7E7"/>
<path d="M217.515 106.009L222 106L221.987 110.682L217.548 110.683L217.554 115.319L221.997 115.301L221.99 120L217.541 119.982L217.505 115.351L213 115.304L213.01 110.702L217.48 110.668L217.515 106.009Z" fill="#E7E7E7"/>
<path d="M208.011 106.01L213 106L212.992 110.537L212.98 114.978L208.008 115L208 110.517L208.011 106.01Z" fill="#E7E7E7"/>
<path d="M208 111L213 111.018L212.989 114.98L208.008 115L208 111Z" fill="#101010"/>
<path d="M170.006 199.03L174.995 199L175 204L170 203.985L170.006 199.03Z" fill="#E7E7E7"/>
<path d="M156.009 241.028L160.995 241L161 246L156 245.972L156.009 241.028Z" fill="#E7E7E7"/>
<path d="M194.008 92.0202L198.992 92L199 97L194 96.9779L194.008 92.0202Z" fill="#E7E7E7"/>
<path d="M170.011 87.0127L174.994 87L175 92L170 91.9828L170.011 87.0127Z" fill="#E7E7E7"/>
<path d="M142 237.009L146.998 237L147 241L142.01 240.986L142 237.009Z" fill="#E7E7E7"/>
<path d="M194.006 185.015L198.992 185L199 190L194 189.992L194.006 185.015Z" fill="#E7E7E7"/>
<path d="M208.003 115.024L212.992 115L213 120L208 119.992L208.003 115.024Z" fill="#E7E7E7"/>
<path d="M180.005 255.011L185 255L184.986 260L180 259.992L180.005 255.011Z" fill="#E7E7E7"/>
<path d="M170 265.02L174.995 265L175 269L170.008 268.978L170 265.02Z" fill="#E7E7E7"/>
<path d="M124 199.005L127.996 199L128 204L124.034 203.991L124 199.005Z" fill="#E7E7E7"/>
<path d="M199.007 87.0124L203 87L202.989 92L199 91.9952L199.007 87.0124Z" fill="#E7E7E7"/>
<path d="M180 265.027L185 265L184.984 269L180.008 268.975L180 265.027Z" fill="#E7E7E7"/>
<path d="M124 143.005L127.993 143L128 148L124.014 147.976L124 143.005Z" fill="#E7E7E7"/>
<path d="M208 134.023L213 134L212.994 139L208.014 138.956L208 134.023Z" fill="#E7E7E7"/>
<path d="M199.007 181.016L202.945 181C203.001 182.396 203.01 183.603 202.99 185L199 184.996L199.007 181.016Z" fill="#E7E7E7"/>
<path d="M161.009 237.009L166 237L165.982 241L161 240.995L161.009 237.009Z" fill="#E7E7E7"/>
<path d="M152 246.011L156 246L156 251L152.014 250.972L152 246.011Z" fill="#E7E7E7"/>
<path d="M124 218.02L127.998 218L128 223L124.023 222.994L124 218.02Z" fill="#E7E7E7"/>
<path d="M175.196 250.697L170.516 250.7L170.5 255.412L175.206 255.396L175.198 260.108L170.514 260.093L170.497 264.741L165.833 264.73L165.804 269.432L161.181 269.413L161.171 264.726L165.783 264.712L165.812 260.119L161.19 260.085L161.17 255.401L165.787 255.391L165.812 250.759L161.189 250.687L161.172 246.089L165.834 246.073L165.841 250.708L170.464 250.689L170.487 246.081L175.202 246.07L175.196 250.697ZM165.852 255.401C165.848 256.95 165.822 258.552 165.845 260.095L170.468 260.077L170.5 255.412L165.852 255.401Z" fill="#E7E7E7"/>
<path d="M217 97.0207L222 97L221.997 101L217.017 100.976L217 97.0207Z" fill="#E7E7E7"/>
<path d="M142 293.011L146.991 293L147 297L142.008 296.993L142 293.011Z" fill="#E7E7E7"/>
<path d="M156.466 288.124H151.839C151.838 289.662 151.816 291.243 151.84 292.772L156.481 292.765L156.476 297.493L161.138 297.464L161.177 292.775L165.818 292.768L165.807 297.472H161.196L161.175 302.176L156.479 302.149L156.473 306.79H151.84C151.836 308.346 151.813 309.954 151.839 311.505L156.482 311.497L156.487 316.169L161.139 316.143L161.167 311.507L165.824 311.497L165.815 316.153L161.195 316.15L161.174 320.836L156.464 320.812L156.465 325.529L151.814 325.501L151.785 320.854L147.164 320.797L147.157 316.19L142.46 316.135L142.444 311.497L147.125 311.483L147.148 306.835L142.464 306.779L142.436 302.187L137.805 302.126L137.782 297.472L142.448 297.463L142.468 302.165L147.165 302.144L147.168 306.795L151.755 306.781L151.791 302.151L156.449 302.114L156.476 297.492L151.822 297.461L151.776 292.805L147.146 292.759L147.157 288.156L151.745 288.104L151.801 283.457L156.475 283.446L156.466 288.124ZM156.468 316.188C154.894 316.142 153.413 316.18 151.841 316.217C151.803 317.72 151.824 319.306 151.821 320.817L156.463 320.812L156.468 316.188ZM147.157 316.189L151.752 316.143L151.791 311.539L147.174 311.499L147.157 316.189Z" fill="#E7E7E7"/>
<path d="M221.731 176.027L226.505 176L226.532 180.619L231.29 180.579L231.298 185.181L235.992 185.173L236 189.828L231.288 189.815L231.274 194.388L226.53 194.38L226.511 199L221.72 198.976V194.433L217.024 194.381L217.003 189.813L221.728 189.805L221.734 185.199L217.024 185.175L217 180.594L221.701 180.58L221.731 176.027Z" fill="#E7E7E7"/>
<path d="M222.006 185.026L226.992 185L227 190L222 189.981L222.006 185.026Z" fill="#E7E7E7"/>
<path d="M227 185L231 185.035L230.968 189.977L227.007 190L227 185Z" fill="#101010"/>
<path d="M222.02 181L227 181.018V184.979L222 185L222.02 181Z" fill="#101010"/>
<path d="M222 190L227 190.019L226.969 194.974L222.02 195L222 190Z" fill="#101010"/>
<path d="M161.003 321.026L165.64 321L165.655 325.699L170.296 325.683L170.316 330.351L175 330.314L174.982 335L170.307 334.955L170.283 330.361L165.648 330.327L165.624 334.982L161.008 334.963L161 330.327L165.598 330.306L165.626 325.723L161.02 325.681L161.003 321.026Z" fill="#E7E7E7"/>
<path d="M179.961 330.028L185 330L184.996 334.98H180L179.963 340L175.016 339.972L175 335.008L179.929 334.972L179.961 330.028Z" fill="#E7E7E7"/>
<path d="M189.532 227.005L194 227L193.98 232.029L189.546 232.039L189.525 237L185 236.991L185.005 232.061L189.482 232.019L189.532 227.005Z" fill="#E7E7E7"/>
<path d="M142 274.031C143.649 273.997 145.346 274.009 147 274L146.983 279L142.059 278.971C142.006 277.36 142.015 275.654 142 274.031Z" fill="#E7E7E7"/>
<path d="M170 321.017L175 321L174.986 326L170.006 325.994L170 321.017Z" fill="#E7E7E7"/>
<path d="M180 227.011L185 227L184.997 232L180.043 231.972L180 227.011Z" fill="#E7E7E7"/>
<path d="M236 199.009L241 199L240.972 204L236.02 203.981L236 199.009Z" fill="#E7E7E7"/>
<path d="M142 283.011L147 283L146.998 288L142.036 287.963L142 283.011Z" fill="#E7E7E7"/>
<path d="M208 171.013L213 171L212.98 176L208.008 175.981L208 171.013Z" fill="#E7E7E7"/>
<path d="M114 78.0047L119 78L118.968 82L114.011 81.9899L114 78.0047Z" fill="#E7E7E7"/>
<path d="M227.004 171.01L231 171L230.984 176L227 175.992L227.004 171.01Z" fill="#E7E7E7"/>
<path d="M180 321.008L185 321L184.981 326L180.032 325.992L180 321.008Z" fill="#E7E7E7"/>
<path d="M208 321.006L213 321L212.972 326L208.008 325.986L208 321.006Z" fill="#E7E7E7"/>
<path d="M199.011 143.014L203 143L202.982 148L199 147.984L199.011 143.014Z" fill="#E7E7E7"/>
<path d="M227 199.026L231 199L230.986 204L227.009 203.981L227 199.026Z" fill="#E7E7E7"/>
<path d="M236 106.005L241 106L240.963 111L236.011 110.981L236 106.005Z" fill="#E7E7E7"/>
<path d="M171.017 237.011L175 237L174.996 241L171 240.993L171.017 237.011Z" fill="#E7E7E7"/>
<path d="M180 237.011L185 237L184.995 241L180.017 240.989L180 237.011Z" fill="#E7E7E7"/>
<path d="M208.003 265.007L213 265L212.977 269L208 268.989L208.003 265.007Z" fill="#E7E7E7"/>
<path d="M194 335.031L199 335L198.997 340L194.017 339.972L194 335.031Z" fill="#E7E7E7"/>
<path d="M199 255.003L203 255L202.968 260L199.002 259.986L199 255.003Z" fill="#E7E7E7"/>
<path d="M217 171.011L222 171L221.994 176L217.037 175.978L217 171.011Z" fill="#E7E7E7"/>
<path d="M199.009 330.023L203 330L202.986 335H199L199.009 330.023Z" fill="#E7E7E7"/>
<path d="M124 227.014L128 227L127.981 232L124 231.988V227.014Z" fill="#E7E7E7"/>
<path d="M170 311.008L175 311L174.962 316L170.02 315.989L170 311.008Z" fill="#E7E7E7"/>
<path d="M227.02 115.01L231 115L230.98 120L227 119.983L227.02 115.01Z" fill="#E7E7E7"/>
<path d="M236.006 181.019L240.859 181C241.063 182.342 240.99 183.647 240.974 185L236 184.996L236.006 181.019Z" fill="#E7E7E7"/>
<path d="M245 171.003L250 171L249.983 176L245.009 175.992L245 171.003Z" fill="#E7E7E7"/>
<path d="M217 199.008L222 199L221.997 204L217.017 203.979L217 199.008Z" fill="#E7E7E7"/>
<path d="M227.02 209.014L231 209L230.975 213L227 212.989L227.02 209.014Z" fill="#E7E7E7"/>
<path d="M170 302H175L174.984 306.994L170.006 307L170 302Z" fill="#E7E7E7"/>
<path d="M189 321.006L194 321L193.974 326L189.001 325.989L189 321.006Z" fill="#E7E7E7"/>
<path d="M236 218.007L241 218L240.978 223L236.006 222.98L236 218.007Z" fill="#E7E7E7"/>
<path d="M180 218.01L185 218L184.99 223L180.017 222.986L180 218.01Z" fill="#E7E7E7"/>
<path d="M180 312.002L185 312L184.954 316L180.013 315.986L180 312.002Z" fill="#E7E7E7"/>
<path d="M189.019 265.007L194 265L193.977 269L189 268.984L189.019 265.007Z" fill="#E7E7E7"/>
<path d="M189 330.02L194 330L193.986 335L189.017 334.961L189 330.02Z" fill="#E7E7E7"/>
<path d="M217 162.006L222 162L221.98 167L217.028 166.99L217 162.006Z" fill="#E7E7E7"/>
<path d="M227 97.0025L231 97L230.971 100.976C229.77 101.026 228.23 100.982 227.002 100.983L227 97.0025Z" fill="#E7E7E7"/>
<path d="M245 190.005L250 190L249.972 195L245.025 194.972L245 190.005Z" fill="#E7E7E7"/>
<path d="M227 153L231 153.002L230.968 156.972C229.789 157.028 228.211 156.983 227 156.986V153Z" fill="#E7E7E7"/>
<path d="M133.114 59.0136L138 59L137.951 63.9411C136.695 64.0426 134.358 63.9816 133.021 63.9839C132.992 62.1817 132.97 60.8149 133.114 59.0136Z" fill="#E7E7E7"/>
<path d="M189 40.0023L194 40L193.96 45L189.008 44.9775L189 40.0023Z" fill="#E7E7E7"/>
<path d="M217 153.008L222 153L221.991 157L217.009 156.987L217 153.008Z" fill="#E7E7E7"/>
<path d="M161 302.031L166 302L165.987 307L161.015 306.98L161 302.031Z" fill="#E7E7E7"/>
<path d="M133.001 246.006L138 246L137.951 250.918C136.735 251.053 134.322 250.981 133 250.978L133.001 246.006Z" fill="#E7E7E7"/>
<path d="M208 190.013L212.973 190C212.99 191.711 213.079 193.316 212.8 195L208.011 194.965L208 190.013Z" fill="#E7E7E7"/>
<path d="M236 190.022L240.993 190C240.993 190.986 241.046 194.239 240.864 195L236.011 194.967L236 190.022Z" fill="#E7E7E7"/>
<path d="M189.035 209.009L194 209L193.971 213L189.002 212.988C188.991 211.673 189.022 210.327 189.035 209.009Z" fill="#E7E7E7"/>
<path d="M246.427 181L249.918 181.025C249.956 182.037 250.209 184.163 249.578 184.916L248.843 185L245.106 184.974C245.095 183.984 244.76 182.1 245.341 181.267C245.533 180.991 245.882 181.061 246.427 181Z" fill="#E7E7E7"/>
<path d="M274 69C274.37 69.2396 274.642 69.457 275 69.7432L274.453 71.2686C274.462 71.5166 274.397 71.7578 274.362 72C274.048 71.0163 274.062 70.1074 274 69Z" fill="#101010"/>
<path d="M141 278.58C141.129 277.728 141.172 276.587 141.595 276C141.958 277.015 141.936 277.908 142 279C141.684 278.926 141.314 278.724 141 278.58Z" fill="#101010"/>
</svg>
