<svg width="20" height="20" viewBox="0 0 20 20" fill="none" xmlns="http://www.w3.org/2000/svg">
<path d="M16.6666 5.83331C16.6666 5.6123 16.5788 5.4004 16.4225 5.24412C16.2662 5.08784 16.0543 4.99998 15.8333 4.99998H4.16663C3.94561 4.99998 3.73371 5.08784 3.57743 5.24412C3.42115 5.4004 3.33329 5.6123 3.33329 5.83331V14.1666C3.33329 14.3877 3.42115 14.5996 3.57743 14.7558C3.73371 14.9121 3.94561 15 4.16663 15H15.8333C16.0543 15 16.2662 14.9121 16.4225 14.7558C16.5788 14.5996 16.6666 14.3877 16.6666 14.1666V5.83331ZM18.3333 14.1666C18.3333 14.8297 18.0697 15.4654 17.6009 15.9342C17.132 16.4031 16.4963 16.6666 15.8333 16.6666H4.16663C3.50358 16.6666 2.86789 16.4031 2.39905 15.9342C1.93021 15.4654 1.66663 14.8297 1.66663 14.1666V5.83331C1.66663 5.17027 1.93021 4.53458 2.39905 4.06573C2.86789 3.59689 3.50358 3.33331 4.16663 3.33331H15.8333C16.4963 3.33331 17.132 3.59689 17.6009 4.06573C18.0697 4.53458 18.3333 5.17027 18.3333 5.83331V14.1666Z" fill="#E7E7E7"/>
<path d="M17.0377 5.13993C17.4206 4.88463 17.938 4.98811 18.1933 5.37105C18.4486 5.75399 18.3451 6.27135 17.9621 6.52664L10.4622 11.5266C10.1822 11.7133 9.81759 11.7133 9.53767 11.5266L2.03767 6.52664C1.65473 6.27135 1.55126 5.75399 1.80655 5.37105C2.06185 4.98811 2.57921 4.88463 2.96215 5.13993L9.99991 9.8315L17.0377 5.13993Z" fill="#E7E7E7"/>
</svg>
