<svg width="20" height="20" viewBox="0 0 20 20" fill="none" xmlns="http://www.w3.org/2000/svg">
<path d="M4.6875 3.125C4.27411 3.12827 3.87858 3.29394 3.58626 3.58626C3.29394 3.87858 3.12827 4.27411 3.125 4.6875V15.3125C3.125 16.1669 3.83313 16.875 4.6875 16.875H15.3125C16.1669 16.875 16.875 16.1669 16.875 15.3125V4.6875C16.875 3.83313 16.1669 3.125 15.3125 3.125H4.6875ZM4.6875 4.375H15.3125C15.4906 4.375 15.625 4.50938 15.625 4.6875V15.3125C15.6259 15.3538 15.6183 15.3948 15.6029 15.4331C15.5875 15.4714 15.5646 15.5062 15.5354 15.5354C15.5062 15.5646 15.4714 15.5875 15.4331 15.6029C15.3948 15.6183 15.3538 15.6259 15.3125 15.625H4.6875C4.64623 15.6259 4.60521 15.6183 4.56691 15.6029C4.52861 15.5875 4.49382 15.5646 4.46463 15.5354C4.43544 15.5062 4.41246 15.4714 4.39705 15.4331C4.38165 15.3948 4.37415 15.3538 4.375 15.3125V4.6875C4.375 4.50938 4.50938 4.375 4.6875 4.375ZM6.52375 5.44937C6.38052 5.44592 6.23805 5.47115 6.10472 5.52357C5.97138 5.57599 5.84988 5.65456 5.74736 5.75463C5.64484 5.85471 5.56337 5.97428 5.50774 6.10631C5.45212 6.23834 5.42346 6.38017 5.42346 6.52344C5.42346 6.66671 5.45212 6.80853 5.50774 6.94056C5.56337 7.07259 5.64484 7.19216 5.74736 7.29224C5.84988 7.39232 5.97138 7.47088 6.10472 7.52331C6.23805 7.57573 6.38052 7.60096 6.52375 7.5975C6.80412 7.59074 7.07074 7.47461 7.26664 7.27392C7.46255 7.07323 7.57221 6.80389 7.57221 6.52344C7.57221 6.24298 7.46255 5.97365 7.26664 5.77296C7.07074 5.57227 6.80412 5.45614 6.52375 5.44937ZM12.1675 8.30063C11.2719 8.30063 10.6762 8.79125 10.43 9.2575H10.3906V8.4375H8.6325V14.375H10.4688V11.445C10.4688 10.6713 10.6225 9.92188 11.5819 9.92188C12.5269 9.92188 12.5394 10.7956 12.5394 11.4844V14.375H14.375V11.1131C14.375 9.51688 14.035 8.30063 12.1675 8.30063ZM5.625 8.4375V14.375H7.48062V8.4375H5.625Z" fill="#E7E7E7"/>
</svg>
