<svg width="20" height="20" viewBox="0 0 20 20" fill="none" xmlns="http://www.w3.org/2000/svg">
<path d="M15.8334 13.3333C16.2936 13.3333 16.6667 13.7064 16.6667 14.1667C16.6667 14.6269 16.2936 15 15.8334 15H4.16671C3.70647 15 3.33337 14.6269 3.33337 14.1667C3.33337 13.7064 3.70647 13.3333 4.16671 13.3333H15.8334ZM15.8334 9.16667C16.2936 9.16667 16.6667 9.53976 16.6667 10C16.6667 10.4602 16.2936 10.8333 15.8334 10.8333H4.16671C3.70647 10.8333 3.33337 10.4602 3.33337 10C3.33337 9.53976 3.70647 9.16667 4.16671 9.16667H15.8334ZM15.8334 5C16.2936 5 16.6667 5.3731 16.6667 5.83333C16.6667 6.29357 16.2936 6.66667 15.8334 6.66667H4.16671C3.70647 6.66667 3.33337 6.29357 3.33337 5.83333C3.33337 5.3731 3.70647 5 4.16671 5H15.8334Z" fill="#E7E7E7"/>
</svg>
