<svg xmlns="http://www.w3.org/2000/svg" viewBox="0 0 107 39">
  <path fill="#000" d="M0 6.846A6.844 6.844 0 0 1 13.686 6.846v25.308A6.844 6.844 0 0 1 0 32.154V6.846Zm16.174 0a6.844 6.844 0 0 1 13.687 0v25.308a6.844 6.844 0 0 1-13.687 0V6.846Zm16.175 0a6.844 6.844 0 0 1 13.686 0v25.308a6.844 6.844 0 0 1-13.686 0V6.846ZM67.808 0a6.846 6.846 0 0 1 0 13.691H62.21v18.463a6.844 6.844 0 0 1-13.687 0V6.846A6.844 6.844 0 0 1 55.366 0h12.442Zm9.332 6.846a6.844 6.844 0 0 1 13.686 0v25.308a6.844 6.844 0 0 1-13.686 0V6.846Zm16.174 0a6.844 6.844 0 0 1 13.686 0v25.308a6.844 6.844 0 0 1-13.686 0V6.846Z"/>
</svg>
