<svg preserveAspectRatio="none" overflow="visible" style="display: block;" width="18" height="18" viewBox="0 0 18 18" fill="none" xmlns="http://www.w3.org/2000/svg">
<g id="qlementine-icons:resume-16">
<g id="Vector">
<path d="M9 5.0625C9.37296 5.0625 9.73065 4.91434 9.99437 4.65062C10.2581 4.3869 10.4062 4.02921 10.4062 3.65625C10.4062 3.28329 10.2581 2.9256 9.99437 2.66188C9.73065 2.39816 9.37296 2.25 9 2.25C8.62704 2.25 8.26935 2.39816 8.00563 2.66188C7.74191 2.9256 7.59375 3.28329 7.59375 3.65625C7.59375 4.02921 7.74191 4.3869 8.00563 4.65062C8.26935 4.91434 8.62704 5.0625 9 5.0625Z" fill="white"/>
<path d="M9 5.0625C9.67162 5.0625 10.2712 5.49225 10.485 6.13013L10.5829 6.42263C10.5956 6.46004 10.5992 6.49997 10.5934 6.53906C10.5876 6.57816 10.5725 6.61529 10.5493 6.64734C10.5262 6.6794 10.4957 6.70544 10.4604 6.7233C10.4252 6.74117 10.3862 6.75032 10.3466 6.75H7.65787C7.61852 6.74982 7.57976 6.74035 7.54476 6.72234C7.50976 6.70434 7.47951 6.67832 7.45648 6.6464C7.43345 6.61449 7.41829 6.57758 7.41223 6.53869C7.40617 6.4998 7.40939 6.46003 7.42162 6.42263L7.5195 6.13013C7.62365 5.81882 7.82311 5.54819 8.08964 5.35657C8.35617 5.16496 8.67624 5.06207 9.0045 5.0625H9ZM5.625 9.5625C5.625 9.41332 5.68426 9.27024 5.78975 9.16475C5.89524 9.05926 6.03832 9 6.1875 9H11.8125C11.9617 9 12.1048 9.05926 12.2102 9.16475C12.3157 9.27024 12.375 9.41332 12.375 9.5625C12.375 9.71168 12.3157 9.85476 12.2102 9.96025C12.1048 10.0657 11.9617 10.125 11.8125 10.125H6.1875C6.03832 10.125 5.89524 10.0657 5.78975 9.96025C5.68426 9.85476 5.625 9.71168 5.625 9.5625ZM5.625 11.8125C5.625 11.6633 5.68426 11.5202 5.78975 11.4148C5.89524 11.3093 6.03832 11.25 6.1875 11.25H11.8125C11.9617 11.25 12.1048 11.3093 12.2102 11.4148C12.3157 11.5202 12.375 11.6633 12.375 11.8125C12.375 11.9617 12.3157 12.1048 12.2102 12.2102C12.1048 12.3157 11.9617 12.375 11.8125 12.375H6.1875C6.03832 12.375 5.89524 12.3157 5.78975 12.2102C5.68426 12.1048 5.625 11.9617 5.625 11.8125ZM6.1875 13.5C6.03832 13.5 5.89524 13.5593 5.78975 13.6648C5.68426 13.7702 5.625 13.9133 5.625 14.0625C5.625 14.2117 5.68426 14.3548 5.78975 14.4602C5.89524 14.5657 6.03832 14.625 6.1875 14.625H8.4375C8.58668 14.625 8.72976 14.5657 8.83525 14.4602C8.94074 14.3548 9 14.2117 9 14.0625C9 13.9133 8.94074 13.7702 8.83525 13.6648C8.72976 13.5593 8.58668 13.5 8.4375 13.5H6.1875Z" fill="white"/>
<path fill-rule="evenodd" clip-rule="evenodd" d="M2.62125 1.845C2.25337 2.56725 2.25338 3.51 2.25338 5.4V12.6C2.25338 14.49 2.25337 15.435 2.62125 16.155C2.94597 16.7885 3.46148 17.304 4.095 17.6287C4.81725 17.9966 5.76 17.9966 7.65 17.9966H10.35C12.24 17.9966 13.185 17.9966 13.905 17.6287C14.5394 17.3053 15.0553 16.7894 15.3787 16.155C15.7466 15.4327 15.7466 14.49 15.7466 12.6V5.4C15.7466 3.51 15.7466 2.565 15.3787 1.845C15.0553 1.21057 14.5394 0.694715 13.905 0.37125C13.1827 0.00337503 12.24 0.003375 10.35 0.003375H7.65C5.76 0.003375 4.815 0.00337503 4.095 0.37125C3.46148 0.695968 2.94597 1.21148 2.62125 1.845ZM10.35 1.12725H7.65C6.68587 1.12725 6.03 1.12725 5.52375 1.17C5.031 1.20937 4.77788 1.2825 4.60238 1.3725C4.17903 1.58821 3.83484 1.9324 3.61913 2.35575C3.52913 2.53125 3.456 2.78325 3.41662 3.27713C3.375 3.78338 3.37388 4.43588 3.37388 5.40338V12.6034C3.37388 13.5675 3.375 14.2234 3.41662 14.7296C3.45712 15.2224 3.53025 15.4755 3.61913 15.651C3.83513 16.074 4.17938 16.4182 4.60238 16.6342C4.77788 16.7242 5.031 16.7974 5.52375 16.8367C6.03 16.8772 6.6825 16.8784 7.65 16.8784H10.35C11.3141 16.8784 11.97 16.8784 12.4762 16.8367C12.969 16.7962 13.2221 16.7231 13.3976 16.6342C13.8206 16.4182 14.1649 16.074 14.3809 15.651C14.4709 15.4755 14.544 15.2224 14.5834 14.7285C14.625 14.2222 14.6261 13.5697 14.6261 12.6022V5.40225C14.6261 4.43925 14.625 3.78225 14.5834 3.276C14.5429 2.78437 14.4697 2.53125 14.3809 2.35575C14.1652 1.9324 13.821 1.58821 13.3976 1.3725C13.2221 1.2825 12.969 1.20937 12.4762 1.17C11.97 1.12837 11.3175 1.12725 10.35 1.12725Z" fill="white"/>
</g>
</g>
</svg>
